<svg xmlns="http://www.w3.org/2000/svg" viewBox="0 0 900 260" role="img" aria-labelledby="title desc">
  <title id="title">TáPronto</title>
  <desc id="desc">Logo horizontal do TáPronto, cardápio e pedidos.</desc>

  <g id="icone-tapronto">
    <rect x="54" y="42" width="178" height="178" rx="42" fill="#E21D2B"/>

    <path
      d="M135 82c50 0 91 36 91 80s-41 80-91 80c-20 0-38-6-53-16l-42 20c-7 3-14-4-11-11l19-43c-9-13-14-29-14-46 0-44 45-64 101-64Z"
      fill="#FFFFFF"
      transform="translate(36 -20) scale(.84)"
    />

    <path
      d="M100 139l31 32 66-74"
      fill="none"
      stroke="#06172F"
      stroke-width="19"
      stroke-linecap="round"
      stroke-linejoin="round"
      transform="translate(-8 -8) scale(.86)"
    />

    <rect x="182" y="48" width="18" height="18" rx="3" fill="#FFFFFF"/>
    <rect x="211" y="64" width="15" height="15" rx="3" fill="#E21D2B"/>
    <rect x="166" y="80" width="16" height="16" rx="3" fill="#FFFFFF"/>
    <rect x="199" y="92" width="18" height="18" rx="3" fill="#FFFFFF"/>
    <rect x="226" y="106" width="16" height="16" rx="3" fill="#E21D2B"/>
    <rect x="184" y="123" width="13" height="13" rx="3" fill="#FFFFFF"/>
  </g>

  <g id="texto-tapronto">
    <text
      x="292"
      y="135"
      font-family="Inter, Sora, Segoe UI, Arial, sans-serif"
      font-size="104"
      font-weight="900"
      letter-spacing="-5"
    >
      <tspan fill="#E21D2B">Tá</tspan><tspan fill="#06172F">Pronto</tspan>
    </text>

    <text
      x="299"
      y="180"
      fill="#06172F"
      font-family="Inter, Segoe UI, Arial, sans-serif"
      font-size="27"
      font-weight="700"
      letter-spacing="-.4"
    >
      Cardápio e pedidos
    </text>
  </g>
</svg>
